STARTFONT 2.1
FONT -Monotype-Nimrod-Regular-I-Normal--17-120-100-100-P-102-iso8859-5
SIZE 12 100 100
FONTBOUNDINGBOX 22 21 -2 -4

STARTPROPERTIES 24
FOUNDRY "Monotype"
FAMILY_NAME "Nimrod"
WEIGHT_NAME "Regular"
SLANT "I"
SETWIDTH_NAME "Normal"
ADD_STYLE_NAME ""
PIXEL_SIZE 17
POINT_SIZE 120
RESOLUTION_X 100
RESOLUTION_Y 100
SPACING "P"
AVERAGE_WIDTH 102
CHARSET_REGISTRY "iso8859"
CHARSET_ENCODING "5"
FACE_NAME "Nimrod Inclined ISO Latin Cyrillic"
_DEC_DEVICE_FONTNAMES "PS=nimrod-in-latcyrillic"
COPYRIGHT "Copyright (c) 1994 Monotype Typography Ltd."
CAP_HEIGHT 15
X_HEIGHT 11
WEIGHT 10
QUAD_WIDTH 12
DEFAULT_CHAR 160
FONT_DESCENT 4
FONT_ASCENT 17
ENDPROPERTIES

CHARS 191

STARTCHAR space
ENCODING 32
SWIDTH 250 0
DWIDTH 4 0
BBX 0 0 0 0
BITMAP
ENDCHAR

STARTCHAR exclam
ENCODING 33
SWIDTH 354 0
DWIDTH 6 0
BBX 5 13 1 0
BITMAP
18
18
18
30
30
30
60
60
40
00
00
C0
C0
ENDCHAR

STARTCHAR quotedbl
ENCODING 34
SWIDTH 417 0
DWIDTH 7 0
BBX 6 5 1 8
BITMAP
24
6C
6C
D8
90
ENDCHAR

STARTCHAR numbersign
ENCODING 35
SWIDTH 667 0
DWIDTH 11 0
BBX 10 13 1 0
BITMAP
1080
1080
1080
1080
7FC0
2100
2100
2100
FF80
4200
4200
4200
4200
ENDCHAR

STARTCHAR dollar
ENCODING 36
SWIDTH 500 0
DWIDTH 9 0
BBX 9 15 0 -2
BITMAP
0200
1F00
3480
3580
3500
3800
1C00
0C00
0E00
5600
D600
9600
7C00
2000
2000
ENDCHAR

STARTCHAR percent
ENCODING 37
SWIDTH 1000 0
DWIDTH 17 0
BBX 12 13 3 0
BITMAP
3040
5840
5880
D900
D100
D200
6260
04B0
08B0
09B0
11A0
21A0
20C0
ENDCHAR

STARTCHAR ampersand
ENCODING 38
SWIDTH 854 0
DWIDTH 15 0
BBX 14 13 1 0
BITMAP
0380
06C0
06C0
0CC0
0D80
1E00
367C
6630
C320
C340
C188
62C8
3C70
ENDCHAR

STARTCHAR quoteright
ENCODING 39
SWIDTH 281 0
DWIDTH 5 0
BBX 3 4 1 9
BITMAP
60
60
20
C0
ENDCHAR

STARTCHAR parenleft
ENCODING 40
SWIDTH 354 0
DWIDTH 6 0
BBX 7 16 0 -3
BITMAP
06
18
30
30
60
60
60
C0
C0
C0
C0
C0
C0
60
60
20
ENDCHAR

STARTCHAR parenright
ENCODING 41
SWIDTH 354 0
DWIDTH 6 0
BBX 7 16 -1 -3
BITMAP
08
0C
0C
06
06
06
06
06
06
0C
0C
0C
18
18
30
C0
ENDCHAR

STARTCHAR asterisk
ENCODING 42
SWIDTH 469 0
DWIDTH 8 0
BBX 7 6 1 7
BITMAP
18
D8
FE
36
D8
D8
ENDCHAR

STARTCHAR plus
ENCODING 43
SWIDTH 667 0
DWIDTH 11 0
BBX 9 9 1 1
BITMAP
0800
0800
0800
0800
FF80
0800
0800
0800
0800
ENDCHAR

STARTCHAR comma
ENCODING 44
SWIDTH 281 0
DWIDTH 5 0
BBX 3 4 1 -2
BITMAP
60
60
20
C0
ENDCHAR

STARTCHAR minus
ENCODING 45
SWIDTH 667 0
DWIDTH 11 0
BBX 9 1 1 5
BITMAP
FF80
ENDCHAR

STARTCHAR period
ENCODING 46
SWIDTH 281 0
DWIDTH 5 0
BBX 2 2 2 0
BITMAP
C0
C0
ENDCHAR

STARTCHAR slash
ENCODING 47
SWIDTH 510 0
DWIDTH 9 0
BBX 8 13 0 0
BITMAP
03
02
06
04
0C
08
08
18
10
30
20
60
C0
ENDCHAR

STARTCHAR zero
ENCODING 48
SWIDTH 500 0
DWIDTH 9 0
BBX 8 13 1 0
BITMAP
1E
33
33
63
63
66
66
66
C6
C6
CC
CC
78
ENDCHAR

STARTCHAR one
ENCODING 49
SWIDTH 500 0
DWIDTH 9 0
BBX 6 13 1 0
BITMAP
04
3C
0C
0C
0C
18
18
18
18
30
30
30
FC
ENDCHAR

STARTCHAR two
ENCODING 50
SWIDTH 500 0
DWIDTH 9 0
BBX 9 13 0 0
BITMAP
1E00
2300
3180
1180
0180
0180
0300
0600
1800
2000
4100
FF00
FE00
ENDCHAR

STARTCHAR three
ENCODING 51
SWIDTH 500 0
DWIDTH 9 0
BBX 9 13 0 0
BITMAP
1F00
3180
2180
0180
0300
1F00
0600
0300
0300
4300
C300
8600
7800
ENDCHAR

STARTCHAR four
ENCODING 52
SWIDTH 500 0
DWIDTH 9 0
BBX 8 13 1 0
BITMAP
01
03
07
0E
16
26
26
46
8C
FF
0C
0C
3F
ENDCHAR

STARTCHAR five
ENCODING 53
SWIDTH 500 0
DWIDTH 9 0
BBX 9 13 0 0
BITMAP
1F80
1F00
1000
2000
3E00
6700
0300
0300
0300
4300
C600
8600
7800
ENDCHAR

STARTCHAR six
ENCODING 54
SWIDTH 500 0
DWIDTH 9 0
BBX 8 13 1 0
BITMAP
0E
1B
31
30
60
7C
E6
C6
C6
C6
C6
CC
78
ENDCHAR

STARTCHAR seven
ENCODING 55
SWIDTH 500 0
DWIDTH 9 0
BBX 8 13 1 0
BITMAP
7F
7F
C2
86
0C
0C
18
18
30
30
60
60
60
ENDCHAR

STARTCHAR eight
ENCODING 56
SWIDTH 500 0
DWIDTH 9 0
BBX 9 13 0 0
BITMAP
0F00
1980
3180
3180
3180
3300
1E00
2300
6300
C300
C300
C600
7C00
ENDCHAR

STARTCHAR nine
ENCODING 57
SWIDTH 500 0
DWIDTH 9 0
BBX 8 13 0 0
BITMAP
1E
33
63
63
63
63
67
3E
06
0C
8C
D8
70
ENDCHAR

STARTCHAR colon
ENCODING 58
SWIDTH 281 0
DWIDTH 5 0
BBX 4 9 1 0
BITMAP
30
30
00
00
00
00
00
C0
C0
ENDCHAR

STARTCHAR semicolon
ENCODING 59
SWIDTH 281 0
DWIDTH 5 0
BBX 5 11 0 -2
BITMAP
18
18
00
00
00
00
00
60
60
20
C0
ENDCHAR

STARTCHAR less
ENCODING 60
SWIDTH 667 0
DWIDTH 11 0
BBX 9 9 1 1
BITMAP
0080
0380
0C00
3000
C000
3000
0C00
0380
0080
ENDCHAR

STARTCHAR equal
ENCODING 61
SWIDTH 667 0
DWIDTH 11 0
BBX 9 5 1 3
BITMAP
FF80
0000
0000
0000
FF80
ENDCHAR

STARTCHAR greater
ENCODING 62
SWIDTH 667 0
DWIDTH 11 0
BBX 9 9 1 1
BITMAP
8000
E000
1800
0600
0180
0600
1800
E000
8000
ENDCHAR

STARTCHAR question
ENCODING 63
SWIDTH 427 0
DWIDTH 7 0
BBX 6 13 1 0
BITMAP
78
9C
CC
4C
18
30
20
40
40
00
00
C0
C0
ENDCHAR

STARTCHAR at
ENCODING 64
SWIDTH 917 0
DWIDTH 16 0
BBX 14 16 1 -3
BITMAP
07C0
1830
2008
4008
43A4
84E4
8CC4
8CC4
98C8
9988
9990
4EE0
4004
2008
1830
07C0
ENDCHAR

STARTCHAR A
ENCODING 65
SWIDTH 771 0
DWIDTH 13 0
BBX 13 13 -1 0
BITMAP
0040
00C0
00E0
0160
0160
0260
0260
0430
0FF0
0830
1030
3030
FCF8
ENDCHAR

STARTCHAR B
ENCODING 66
SWIDTH 740 0
DWIDTH 13 0
BBX 13 13 0 0
BITMAP
3FE0
0C30
0C18
0C18
1818
1830
1FE0
1860
1830
3030
3030
3060
FFC0
ENDCHAR

STARTCHAR C
ENCODING 67
SWIDTH 708 0
DWIDTH 12 0
BBX 11 13 1 0
BITMAP
07C0
1860
3020
6020
6000
C000
C000
C000
C000
C000
6080
7100
1E00
ENDCHAR

STARTCHAR D
ENCODING 68
SWIDTH 792 0
DWIDTH 13 0
BBX 13 13 0 0
BITMAP
3FC0
0C70
0C30
0C18
1818
1818
1818
1818
1830
3030
3060
30C0
FF00
ENDCHAR

STARTCHAR E
ENCODING 69
SWIDTH 708 0
DWIDTH 12 0
BBX 13 13 0 0
BITMAP
3FF8
0C18
0C08
0C08
1888
1880
1F00
1900
1920
3020
3020
3060
FFE0
ENDCHAR

STARTCHAR F
ENCODING 70
SWIDTH 698 0
DWIDTH 12 0
BBX 13 13 0 0
BITMAP
3FF8
0C18
0C08
0C08
1888
1880
1F00
1900
1900
3000
3000
3000
FC00
ENDCHAR

STARTCHAR G
ENCODING 71
SWIDTH 802 0
DWIDTH 14 0
BBX 12 13 2 0
BITMAP
07C0
1860
3020
6020
6000
C000
C000
C3F0
C0C0
C0C0
6180
7180
1F00
ENDCHAR

STARTCHAR H
ENCODING 72
SWIDTH 812 0
DWIDTH 14 0
BBX 15 13 0 0
BITMAP
3F7E
0C18
0C18
0C18
1830
1830
1FF0
1830
1830
3060
3060
3060
FDF8
ENDCHAR

STARTCHAR I
ENCODING 73
SWIDTH 417 0
DWIDTH 7 0
BBX 8 13 0 0
BITMAP
3F
0C
0C
0C
18
18
18
18
18
30
30
30
FC
ENDCHAR

STARTCHAR J
ENCODING 74
SWIDTH 604 0
DWIDTH 10 0
BBX 11 13 0 0
BITMAP
07E0
0180
0180
0180
0180
0300
0300
0300
0300
6600
C600
4C00
3800
ENDCHAR

STARTCHAR K
ENCODING 75
SWIDTH 760 0
DWIDTH 13 0
BBX 15 13 0 0
BITMAP
3F7E
0C18
0C20
0C40
1880
1B00
1D80
1980
18C0
30C0
3060
3060
FDF8
ENDCHAR

STARTCHAR L
ENCODING 76
SWIDTH 667 0
DWIDTH 11 0
BBX 11 13 0 0
BITMAP
3F00
0C00
0C00
0C00
1800
1800
1800
1800
1820
3020
3020
3060
FFE0
ENDCHAR

STARTCHAR M
ENCODING 77
SWIDTH 979 0
DWIDTH 17 0
BBX 18 13 0 0
BITMAP
3E03C0
0E0700
0B0F00
0B0B00
131600
131600
132600
132600
134600
234C00
218C00
218C00
F93F00
ENDCHAR

STARTCHAR N
ENCODING 78
SWIDTH 823 0
DWIDTH 14 0
BBX 15 13 0 0
BITMAP
1C3E
0E08
0E08
0B08
0B10
1310
1190
1190
11A0
21A0
20E0
20C0
F840
ENDCHAR

STARTCHAR O
ENCODING 79
SWIDTH 792 0
DWIDTH 13 0
BBX 12 13 1 0
BITMAP
0780
18E0
3060
6030
6030
C030
C030
C030
C060
C060
60C0
7180
1E00
ENDCHAR

STARTCHAR P
ENCODING 80
SWIDTH 698 0
DWIDTH 12 0
BBX 13 13 0 0
BITMAP
3FE0
0C30
0C18
0C18
1818
1830
1FC0
1800
1800
3000
3000
3000
FC00
ENDCHAR

STARTCHAR Q
ENCODING 81
SWIDTH 792 0
DWIDTH 13 0
BBX 12 15 1 -2
BITMAP
0780
18E0
3060
6030
6030
C030
C030
C030
DC60
E660
63C0
7180
1F80
00C0
0070
ENDCHAR

STARTCHAR R
ENCODING 82
SWIDTH 760 0
DWIDTH 13 0
BBX 13 13 0 0
BITMAP
3FE0
0C30
0C18
0C18
1818
1830
1FC0
18C0
18C0
3060
3060
3030
FC38
ENDCHAR

STARTCHAR S
ENCODING 83
SWIDTH 646 0
DWIDTH 11 0
BBX 10 13 1 0
BITMAP
0F80
18C0
3040
3040
3800
1C00
0E00
0700
0380
8180
8180
C300
7C00
ENDCHAR

STARTCHAR T
ENCODING 84
SWIDTH 750 0
DWIDTH 13 0
BBX 12 13 2 0
BITMAP
FFF0
C630
8620
8620
0C00
0C00
0C00
0C00
0C00
1800
1800
1800
7E00
ENDCHAR

STARTCHAR U
ENCODING 85
SWIDTH 760 0
DWIDTH 13 0
BBX 13 13 1 0
BITMAP
FCF8
3020
3020
3040
6040
6040
6040
6080
C080
C080
C100
6300
3C00
ENDCHAR

STARTCHAR V
ENCODING 86
SWIDTH 740 0
DWIDTH 13 0
BBX 13 13 1 0
BITMAP
FC78
3030
3020
3040
3040
3080
1900
1900
1A00
1A00
1C00
0C00
0800
ENDCHAR

STARTCHAR W
ENCODING 87
SWIDTH 979 0
DWIDTH 17 0
BBX 16 13 2 0
BITMAP
F3CF
6186
6184
6184
6388
6288
3288
34D0
34D0
34D0
38E0
1860
1040
ENDCHAR

STARTCHAR X
ENCODING 88
SWIDTH 750 0
DWIDTH 13 0
BBX 15 13 -1 0
BITMAP
3F3E
0C18
0C10
0620
0640
0380
0300
0380
04C0
08C0
1060
3060
F9F8
ENDCHAR

STARTCHAR Y
ENCODING 89
SWIDTH 708 0
DWIDTH 12 0
BBX 13 13 1 0
BITMAP
FCF8
3020
1840
1880
0C80
0D00
0600
0600
0600
0C00
0C00
0C00
3F00
ENDCHAR

STARTCHAR Z
ENCODING 90
SWIDTH 687 0
DWIDTH 11 0
BBX 10 13 1 0
BITMAP
3FC0
60C0
4180
4300
0300
0600
0C00
1800
1800
3080
6080
C180
FF00
ENDCHAR

STARTCHAR bracketleft
ENCODING 91
SWIDTH 344 0
DWIDTH 6 0
BBX 7 16 0 -3
BITMAP
1E
18
18
18
30
30
30
30
60
60
60
60
C0
C0
C0
F0
ENDCHAR

STARTCHAR backslash
ENCODING 92
SWIDTH 510 0
DWIDTH 9 0
BBX 9 13 0 0
BITMAP
C000
6000
2000
3000
1000
1800
0800
0C00
0400
0600
0200
0300
0180
ENDCHAR

STARTCHAR bracketright
ENCODING 93
SWIDTH 344 0
DWIDTH 6 0
BBX 7 16 -1 -3
BITMAP
1E
06
06
06
0C
0C
0C
0C
18
18
18
18
30
30
30
F0
ENDCHAR

STARTCHAR asciicircum
ENCODING 94
SWIDTH 427 0
DWIDTH 7 0
BBX 7 6 0 7
BITMAP
10
10
28
6C
44
C6
ENDCHAR

STARTCHAR underscore
ENCODING 95
SWIDTH 500 0
DWIDTH 9 0
BBX 9 1 0 -4
BITMAP
FF80
ENDCHAR

STARTCHAR quoteleft
ENCODING 96
SWIDTH 281 0
DWIDTH 5 0
BBX 3 4 2 9
BITMAP
60
80
C0
C0
ENDCHAR

STARTCHAR a
ENCODING 97
SWIDTH 604 0
DWIDTH 10 0
BBX 10 9 1 0
BITMAP
1D80
3380
6180
6300
C300
C300
C640
CE80
7300
ENDCHAR

STARTCHAR b
ENCODING 98
SWIDTH 604 0
DWIDTH 10 0
BBX 9 13 1 0
BITMAP
3800
1800
1800
3000
3700
3980
3180
6180
6180
6300
C300
C600
BC00
ENDCHAR

STARTCHAR c
ENCODING 99
SWIDTH 448 0
DWIDTH 8 0
BBX 8 9 1 0
BITMAP
1E
33
61
60
C0
C0
C0
C4
78
ENDCHAR

STARTCHAR d
ENCODING 100
SWIDTH 604 0
DWIDTH 10 0
BBX 10 13 1 0
BITMAP
01C0
00C0
00C0
0180
1D80
3380
6300
6300
C300
C600
C640
CE80
7300
ENDCHAR

STARTCHAR e
ENCODING 101
SWIDTH 448 0
DWIDTH 8 0
BBX 8 9 1 0
BITMAP
1E
33
63
66
CC
F0
C0
C4
78
ENDCHAR

STARTCHAR f
ENCODING 102
SWIDTH 344 0
DWIDTH 6 0
BBX 12 16 -2 -3
BITMAP
00E0
0130
0310
0300
1FC0
0600
0600
0600
0600
0C00
0C00
0C00
0C00
4800
D800
7000
ENDCHAR

STARTCHAR g
ENCODING 103
SWIDTH 583 0
DWIDTH 10 0
BBX 11 12 0 -3
BITMAP
0F60
1980
3180
3180
1B00
3E00
6000
3E00
4700
C300
E200
7C00
ENDCHAR

STARTCHAR h
ENCODING 104
SWIDTH 635 0
DWIDTH 11 0
BBX 10 13 1 0
BITMAP
3800
1800
1800
3000
3700
3980
3180
6180
6300
6300
C640
C680
C300
ENDCHAR

STARTCHAR i
ENCODING 105
SWIDTH 344 0
DWIDTH 6 0
BBX 5 13 1 0
BITMAP
18
18
00
00
70
30
30
60
60
60
C8
D0
60
ENDCHAR

STARTCHAR j
ENCODING 106
SWIDTH 344 0
DWIDTH 6 0
BBX 8 16 -1 -3
BITMAP
03
03
00
00
0E
06
06
0C
0C
0C
0C
18
18
18
D0
60
ENDCHAR

STARTCHAR k
ENCODING 107
SWIDTH 594 0
DWIDTH 10 0
BBX 10 13 1 0
BITMAP
3800
1800
1800
3000
3180
32C0
6400
7800
6C00
6C00
C640
C680
C300
ENDCHAR

STARTCHAR l
ENCODING 108
SWIDTH 344 0
DWIDTH 6 0
BBX 5 13 1 0
BITMAP
38
18
18
30
30
30
60
60
60
C0
C8
D0
60
ENDCHAR

STARTCHAR m
ENCODING 109
SWIDTH 906 0
DWIDTH 15 0
BBX 15 9 1 0
BITMAP
7738
39CC
318C
6318
6318
6318
C632
C634
C618
ENDCHAR

STARTCHAR n
ENCODING 110
SWIDTH 635 0
DWIDTH 11 0
BBX 10 9 1 0
BITMAP
7700
3980
3180
6300
6300
6300
C640
C680
C300
ENDCHAR

STARTCHAR o
ENCODING 111
SWIDTH 531 0
DWIDTH 9 0
BBX 8 9 1 0
BITMAP
1E
33
63
63
C3
C6
C6
CC
78
ENDCHAR

STARTCHAR p
ENCODING 112
SWIDTH 594 0
DWIDTH 10 0
BBX 10 12 0 -3
BITMAP
3B80
1CC0
18C0
18C0
30C0
3180
3180
3300
6E00
6000
6000
F000
ENDCHAR

STARTCHAR q
ENCODING 113
SWIDTH 573 0
DWIDTH 10 0
BBX 8 12 1 -3
BITMAP
1D
33
63
63
C6
C6
C6
CE
76
0C
0C
1E
ENDCHAR

STARTCHAR r
ENCODING 114
SWIDTH 490 0
DWIDTH 8 0
BBX 8 9 1 0
BITMAP
76
3B
31
60
60
60
C0
C0
C0
ENDCHAR

STARTCHAR s
ENCODING 115
SWIDTH 448 0
DWIDTH 8 0
BBX 7 9 1 0
BITMAP
3C
66
62
70
38
0C
8C
CC
78
ENDCHAR

STARTCHAR t
ENCODING 116
SWIDTH 354 0
DWIDTH 6 0
BBX 6 13 1 0
BITMAP
10
10
30
30
7C
30
60
60
60
C0
C8
D0
60
ENDCHAR

STARTCHAR u
ENCODING 117
SWIDTH 635 0
DWIDTH 11 0
BBX 10 9 1 0
BITMAP
7180
3180
3180
6300
6300
6300
C640
CE80
7300
ENDCHAR

STARTCHAR v
ENCODING 118
SWIDTH 542 0
DWIDTH 10 0
BBX 9 9 1 0
BITMAP
7300
3180
3080
6080
6100
6100
C200
C400
7800
ENDCHAR

STARTCHAR w
ENCODING 119
SWIDTH 812 0
DWIDTH 14 0
BBX 13 9 1 0
BITMAP
71B0
3198
3188
6308
6310
6310
C620
CE40
7380
ENDCHAR

STARTCHAR x
ENCODING 120
SWIDTH 583 0
DWIDTH 10 0
BBX 10 9 0 0
BITMAP
30C0
5980
1A00
0C00
0C00
0C00
1600
6680
C300
ENDCHAR

STARTCHAR y
ENCODING 121
SWIDTH 521 0
DWIDTH 9 0
BBX 9 12 0 -3
BITMAP
6300
B180
3080
3080
1900
1900
1900
1A00
0C00
8800
D000
6000
ENDCHAR

STARTCHAR z
ENCODING 122
SWIDTH 510 0
DWIDTH 8 0
BBX 8 9 1 0
BITMAP
1D
2F
02
0C
18
30
40
F4
B8
ENDCHAR

STARTCHAR braceleft
ENCODING 123
SWIDTH 479 0
DWIDTH 8 0
BBX 7 16 1 -3
BITMAP
06
0C
18
18
30
30
60
C0
20
60
60
60
60
60
20
10
ENDCHAR

STARTCHAR bar
ENCODING 124
SWIDTH 510 0
DWIDTH 9 0
BBX 2 13 4 0
BITMAP
C0
C0
C0
C0
C0
C0
C0
C0
C0
C0
C0
C0
C0
ENDCHAR

STARTCHAR braceright
ENCODING 125
SWIDTH 479 0
DWIDTH 8 0
BBX 7 16 0 -3
BITMAP
10
08
0C
0C
0C
0C
0C
08
06
0C
18
18
30
30
60
C0
ENDCHAR

STARTCHAR asciitilde
ENCODING 126
SWIDTH 667 0
DWIDTH 11 0
BBX 8 3 2 4
BITMAP
71
BD
8E
ENDCHAR

STARTCHAR space
ENCODING 160
SWIDTH 250 0
DWIDTH 5 0
BBX 0 0 0 0
BITMAP
ENDCHAR

STARTCHAR afii10023
ENCODING 161
SWIDTH 708 0
DWIDTH 12 0
BBX 13 16 0 0
BITMAP
0630
0630
0000
3FF8
0C18
0C08
0C08
1888
1880
1F00
1900
1920
3020
3020
3060
FFE0
ENDCHAR

STARTCHAR afii10051
ENCODING 162
SWIDTH 842 0
DWIDTH 14 0
BBX 11 13 2 0
BITMAP
FFC0
CCC0
8C40
8C40
1800
1B80
1CC0
1860
1860
3060
30C0
34C0
FB00
ENDCHAR

STARTCHAR afii10052
ENCODING 163
SWIDTH 676 0
DWIDTH 11 0
BBX 12 17 0 0
BITMAP
00C0
0180
0200
0000
3FF0
0C30
0C10
0C00
1800
1800
1800
1800
3000
3000
3000
3000
FC00
ENDCHAR

STARTCHAR afii10053
ENCODING 164
SWIDTH 708 0
DWIDTH 12 0
BBX 11 13 1 0
BITMAP
07C0
1860
3020
6020
6020
C000
FE00
C000
C000
C000
6080
7100
1E00
ENDCHAR

STARTCHAR afii10054
ENCODING 165
SWIDTH 646 0
DWIDTH 11 0
BBX 10 13 1 0
BITMAP
0F80
18C0
3040
3040
3800
1C00
0E00
0700
0380
8180
8180
C300
7C00
ENDCHAR

STARTCHAR afii10055
ENCODING 166
SWIDTH 406 0
DWIDTH 7 0
BBX 8 13 0 0
BITMAP
3F
0C
0C
0C
18
18
18
18
18
30
30
30
FC
ENDCHAR

STARTCHAR afii10056
ENCODING 167
SWIDTH 406 0
DWIDTH 7 0
BBX 8 16 0 0
BITMAP
33
33
00
3F
0C
0C
0C
18
18
18
18
18
30
30
30
FC
ENDCHAR

STARTCHAR afii10057
ENCODING 168
SWIDTH 615 0
DWIDTH 10 0
BBX 11 13 0 0
BITMAP
07E0
0180
0180
0180
0180
0300
0300
0300
6300
E600
C600
4C00
3800
ENDCHAR

STARTCHAR afii10058
ENCODING 169
SWIDTH 1096 0
DWIDTH 19 0
BBX 19 13 0 0
BITMAP
03FF80
008C00
008C00
008C00
011800
011800
011F00
0218C0
021860
043060
C43060
C830C0
70FF00
ENDCHAR

STARTCHAR afii10059
ENCODING 170
SWIDTH 1061 0
DWIDTH 18 0
BBX 18 13 0 0
BITMAP
3F7E00
0C1800
0C1800
0C1800
183000
183000
1FFE00
183180
1830C0
3060C0
3060C0
306180
FDFE00
ENDCHAR

STARTCHAR afii10060
ENCODING 171
SWIDTH 847 0
DWIDTH 14 0
BBX 12 13 2 0
BITMAP
FFC0
CCC0
8C40
8C40
1800
1BC0
1C60
1860
1860
30C0
30C0
30C0
FBF0
ENDCHAR

STARTCHAR afii10061
ENCODING 172
SWIDTH 779 0
DWIDTH 13 0
BBX 14 17 0 0
BITMAP
0030
0060
0080
0000
3F1C
0C2C
0C20
0C40
1840
1B80
1D80
1980
18C0
30C0
3060
3060
FC70
ENDCHAR

STARTCHAR hyphen
ENCODING 173
SWIDTH 281 0
DWIDTH 5 0
BBX 4 1 0 4
BITMAP
F0
ENDCHAR

STARTCHAR afii10062
ENCODING 174
SWIDTH 738 0
DWIDTH 13 0
BBX 12 17 1 0
BITMAP
0CC0
0CC0
0780
0000
F9F0
3060
3040
3080
1880
1900
1900
1A00
1C00
0C00
C800
D800
7000
ENDCHAR

STARTCHAR afii10145
ENCODING 175
SWIDTH 823 0
DWIDTH 14 0
BBX 15 16 0 -3
BITMAP
3F7E
0C18
0C18
0C18
1830
1830
1830
1830
1830
3060
3060
3060
FFF8
0300
0200
0200
ENDCHAR

STARTCHAR afii10017
ENCODING 176
SWIDTH 753 0
DWIDTH 13 0
BBX 13 13 -1 0
BITMAP
0040
00C0
00E0
0160
0160
0260
0260
0430
0FF0
0830
1030
3030
FCF8
ENDCHAR

STARTCHAR afii10018
ENCODING 177
SWIDTH 767 0
DWIDTH 13 0
BBX 13 13 0 0
BITMAP
3FF8
0C18
0C08
0C08
1800
1800
1FE0
1860
1830
3030
3030
3060
FFC0
ENDCHAR

STARTCHAR afii10019
ENCODING 178
SWIDTH 766 0
DWIDTH 13 0
BBX 13 13 0 0
BITMAP
3FE0
0C30
0C18
0C18
1818
1830
1FE0
1860
1830
3030
3030
3060
FFC0
ENDCHAR

STARTCHAR afii10020
ENCODING 179
SWIDTH 676 0
DWIDTH 11 0
BBX 12 13 0 0
BITMAP
3FF0
0C30
0C10
0C10
1800
1800
1800
1800
1800
3000
3000
3000
FC00
ENDCHAR

STARTCHAR afii10021
ENCODING 180
SWIDTH 803 0
DWIDTH 14 0
BBX 16 16 -1 -3
BITMAP
07FF
018C
010C
010C
0218
0218
0218
0418
0418
0830
0830
1030
7FF8
C018
8008
8008
ENDCHAR

STARTCHAR afii10022
ENCODING 181
SWIDTH 708 0
DWIDTH 12 0
BBX 13 13 0 0
BITMAP
3FF8
0C18
0C08
0C08
1888
1880
1F00
1900
1920
3020
3020
3060
FFE0
ENDCHAR

STARTCHAR afii10024
ENCODING 182
SWIDTH 1175 0
DWIDTH 20 0
BBX 19 13 1 0
BITMAP
71F8E0
686160
086100
086200
04C400
07F800
0CCC00
18CC00
18C600
318600
618300
618300
E7E380
ENDCHAR

STARTCHAR afii10025
ENCODING 183
SWIDTH 632 0
DWIDTH 11 0
BBX 10 13 1 0
BITMAP
1F00
3180
20C0
20C0
00C0
0180
0F00
0180
0180
0180
8180
4300
3C00
ENDCHAR

STARTCHAR afii10026
ENCODING 184
SWIDTH 823 0
DWIDTH 14 0
BBX 15 13 0 0
BITMAP
3F7E
0C18
0C38
0C58
18B0
1930
1930
1A30
1C30
3860
3060
3060
FDF8
ENDCHAR

STARTCHAR afii10027
ENCODING 185
SWIDTH 823 0
DWIDTH 14 0
BBX 15 17 0 0
BITMAP
0330
0330
01E0
0000
3F7E
0C18
0C38
0C58
18B0
1930
1930
1A30
1C30
3860
3060
3060
FDF8
ENDCHAR

STARTCHAR afii10028
ENCODING 186
SWIDTH 779 0
DWIDTH 13 0
BBX 14 13 0 0
BITMAP
3F1C
0C2C
0C20
0C40
1840
1B80
1D80
1980
18C0
30C0
3060
3060
FC70
ENDCHAR

STARTCHAR afii10029
ENCODING 187
SWIDTH 830 0
DWIDTH 14 0
BBX 16 13 -1 0
BITMAP
07FF
018C
010C
010C
0218
0218
0218
0418
0418
0830
C830
D030
60FC
ENDCHAR

STARTCHAR afii10030
ENCODING 188
SWIDTH 979 0
DWIDTH 17 0
BBX 18 13 0 0
BITMAP
3E03C0
0E0700
0B0F00
0B0B00
131600
131600
132600
132600
134600
234C00
218C00
218C00
F93F00
ENDCHAR

STARTCHAR afii10031
ENCODING 189
SWIDTH 812 0
DWIDTH 14 0
BBX 15 13 0 0
BITMAP
3F7E
0C18
0C18
0C18
1830
1830
1FF0
1830
1830
3060
3060
3060
FDF8
ENDCHAR

STARTCHAR afii10032
ENCODING 190
SWIDTH 787 0
DWIDTH 13 0
BBX 12 13 1 0
BITMAP
0780
18E0
3060
6030
6030
C030
C030
C030
C060
C060
60C0
7180
1E00
ENDCHAR

STARTCHAR afii10033
ENCODING 191
SWIDTH 823 0
DWIDTH 14 0
BBX 15 13 0 0
BITMAP
3FFE
0C18
0C18
0C18
1830
1830
1830
1830
1830
3060
3060
3060
FDF8
ENDCHAR

STARTCHAR afii10034
ENCODING 192
SWIDTH 704 0
DWIDTH 12 0
BBX 13 13 0 0
BITMAP
3FE0
0C30
0C18
0C18
1818
1830
1FC0
1800
1800
3000
3000
3000
FC00
ENDCHAR

STARTCHAR afii10035
ENCODING 193
SWIDTH 708 0
DWIDTH 12 0
BBX 11 13 1 0
BITMAP
07C0
1860
3020
6020
6000
C000
C000
C000
C000
C000
6080
7100
1E00
ENDCHAR

STARTCHAR afii10036
ENCODING 194
SWIDTH 708 0
DWIDTH 13 0
BBX 10 13 2 0
BITMAP
FFC0
CCC0
8C40
8C40
1800
1800
1800
1800
1800
3000
3000
3000
FC00
ENDCHAR

STARTCHAR afii10037
ENCODING 195
SWIDTH 738 0
DWIDTH 13 0
BBX 12 13 1 0
BITMAP
F9F0
3060
3040
3080
1880
1900
1900
1A00
1C00
0C00
C800
D800
7000
ENDCHAR

STARTCHAR afii10038
ENCODING 196
SWIDTH 874 0
DWIDTH 15 0
BBX 14 13 1 0
BITMAP
07E0
0180
0FE0
3198
630C
C30C
C30C
C30C
C318
6630
1FC0
0600
1F80
ENDCHAR

STARTCHAR afii10039
ENCODING 197
SWIDTH 760 0
DWIDTH 13 0
BBX 15 13 -1 0
BITMAP
3F3E
0C18
0C10
0620
0640
0380
0300
0380
04C0
08C0
1060
3060
F9F8
ENDCHAR

STARTCHAR afii10040
ENCODING 198
SWIDTH 823 0
DWIDTH 14 0
BBX 15 16 0 -3
BITMAP
3F7E
0C18
0C18
0C18
1830
1830
1830
1830
1830
3060
3060
3060
FFF0
0030
0010
0010
ENDCHAR

STARTCHAR afii10041
ENCODING 199
SWIDTH 779 0
DWIDTH 13 0
BBX 13 13 0 0
BITMAP
FDF8
3060
3060
3060
60C0
60C0
31C0
1EC0
00C0
0180
0180
0180
07E0
ENDCHAR

STARTCHAR afii10042
ENCODING 200
SWIDTH 1141 0
DWIDTH 19 0
BBX 20 13 0 0
BITMAP
3EFDF0
0C30C0
0C30C0
0C30C0
186180
186180
186180
186180
186180
30C300
30C300
30C300
FFFFC0
ENDCHAR

STARTCHAR afii10043
ENCODING 201
SWIDTH 1132 0
DWIDTH 19 0
BBX 20 16 0 -3
BITMAP
3EFDF0
0C30C0
0C30C0
0C30C0
186180
186180
186180
186180
186180
30C300
30C300
30C300
FFFFC0
0000C0
000040
000040
ENDCHAR

STARTCHAR afii10044
ENCODING 202
SWIDTH 881 0
DWIDTH 15 0
BBX 12 13 2 0
BITMAP
FF00
CC00
8C00
8C00
1800
1800
1F80
1860
1830
3030
3030
3060
FF80
ENDCHAR

STARTCHAR afii10045
ENCODING 203
SWIDTH 1083 0
DWIDTH 18 0
BBX 19 13 0 0
BITMAP
3F07E0
0C0180
0C0180
0C0180
180300
180300
1F8300
186300
183300
303600
303600
306600
FF9F80
ENDCHAR

STARTCHAR afii10046
ENCODING 204
SWIDTH 739 0
DWIDTH 13 0
BBX 12 13 1 0
BITMAP
3F00
0C00
0C00
0C00
1800
1800
1F80
1860
1830
3030
3030
3060
FF80
ENDCHAR

STARTCHAR afii10047
ENCODING 205
SWIDTH 703 0
DWIDTH 12 0
BBX 11 13 1 0
BITMAP
0F00
31C0
20C0
4060
4060
0060
07E0
0060
00C0
00C0
8180
4300
3C00
ENDCHAR

STARTCHAR afii10048
ENCODING 206
SWIDTH 1133 0
DWIDTH 19 0
BBX 19 13 0 0
BITMAP
3F0F00
0C31C0
0C60C0
0CC060
18C060
198060
1F8060
198060
1980C0
3180C0
30C180
30E300
FC3C00
ENDCHAR

STARTCHAR afii10049
ENCODING 207
SWIDTH 746 0
DWIDTH 13 0
BBX 13 13 1 0
BITMAP
0FF8
1860
3060
3060
30C0
18C0
0FC0
18C0
18C0
3180
3180
6180
E7E0
ENDCHAR

STARTCHAR afii10065
ENCODING 208
SWIDTH 604 0
DWIDTH 10 0
BBX 10 9 1 0
BITMAP
1D80
3380
6180
6300
C300
C300
C640
CE80
7300
ENDCHAR

STARTCHAR afii10066
ENCODING 209
SWIDTH 551 0
DWIDTH 9 0
BBX 10 13 1 0
BITMAP
0040
0F80
3800
2000
5E00
7300
6300
6300
C300
C600
C600
CC00
7800
ENDCHAR

STARTCHAR afii10067
ENCODING 210
SWIDTH 488 0
DWIDTH 8 0
BBX 8 9 1 0
BITMAP
1E
33
63
66
CC
F8
CC
CC
78
ENDCHAR

STARTCHAR afii10068
ENCODING 211
SWIDTH 439 0
DWIDTH 7 0
BBX 8 9 0 0
BITMAP
1E
23
03
06
18
60
C0
C4
78
ENDCHAR

STARTCHAR afii10069
ENCODING 212
SWIDTH 542 0
DWIDTH 9 0
BBX 8 13 1 0
BITMAP
0C
06
02
03
1F
33
63
63
C3
C6
C6
CC
78
ENDCHAR

STARTCHAR afii10070
ENCODING 213
SWIDTH 458 0
DWIDTH 8 0
BBX 8 9 1 0
BITMAP
1E
33
63
66
CC
F0
C0
C4
78
ENDCHAR

STARTCHAR afii10072
ENCODING 214
SWIDTH 975 0
DWIDTH 17 0
BBX 17 9 1 0
BITMAP
1C4700
264D80
065980
069800
07F000
0CB000
CD3000
D93200
711C00
ENDCHAR

STARTCHAR afii10073
ENCODING 215
SWIDTH 490 0
DWIDTH 8 0
BBX 8 9 1 0
BITMAP
1E
33
23
06
1C
06
C6
CC
78
ENDCHAR

STARTCHAR afii10074
ENCODING 216
SWIDTH 629 0
DWIDTH 11 0
BBX 10 9 1 0
BITMAP
7180
3180
3180
6300
6300
6300
C640
CE80
7300
ENDCHAR

STARTCHAR afii10075
ENCODING 217
SWIDTH 635 0
DWIDTH 11 0
BBX 10 12 1 0
BITMAP
1900
0E00
0000
7180
3180
3180
6300
6300
6300
C640
CE80
7300
ENDCHAR

STARTCHAR afii10076
ENCODING 218
SWIDTH 594 0
DWIDTH 10 0
BBX 9 9 1 0
BITMAP
7380
3580
3400
6800
7800
6C00
CC00
C600
C700
ENDCHAR

STARTCHAR afii10077
ENCODING 219
SWIDTH 646 0
DWIDTH 11 0
BBX 12 9 -1 0
BITMAP
0FF0
0660
0460
08C0
08C0
08C0
D190
D1A0
60C0
ENDCHAR

STARTCHAR afii10078
ENCODING 220
SWIDTH 854 0
DWIDTH 15 0
BBX 15 9 0 0
BITMAP
1E1C
062C
0A2C
0A58
0A58
1298
D3B2
D334
6318
ENDCHAR

STARTCHAR afii10079
ENCODING 221
SWIDTH 644 0
DWIDTH 11 0
BBX 10 9 1 0
BITMAP
7180
3180
3180
6300
7F00
6300
C640
C680
C300
ENDCHAR

STARTCHAR afii10080
ENCODING 222
SWIDTH 531 0
DWIDTH 9 0
BBX 8 9 1 0
BITMAP
1E
33
63
63
C3
C6
C6
CC
78
ENDCHAR

STARTCHAR afii10081
ENCODING 223
SWIDTH 635 0
DWIDTH 11 0
BBX 10 9 1 0
BITMAP
7700
3980
3180
6300
6300
6300
C640
C680
C300
ENDCHAR

STARTCHAR afii10082
ENCODING 224
SWIDTH 583 0
DWIDTH 10 0
BBX 10 12 0 -3
BITMAP
3B80
1CC0
18C0
18C0
30C0
3180
3180
3300
6E00
6000
6000
F000
ENDCHAR

STARTCHAR afii10083
ENCODING 225
SWIDTH 458 0
DWIDTH 8 0
BBX 8 9 1 0
BITMAP
1E
33
61
60
C0
C0
C0
C4
78
ENDCHAR

STARTCHAR afii10084
ENCODING 226
SWIDTH 906 0
DWIDTH 15 0
BBX 15 9 1 0
BITMAP
7738
39CC
318C
6318
6318
6318
C632
C634
C618
ENDCHAR

STARTCHAR afii10085
ENCODING 227
SWIDTH 510 0
DWIDTH 9 0
BBX 9 12 0 -3
BITMAP
6300
B180
3080
3080
1900
1900
1A00
1A00
0C00
8800
D000
6000
ENDCHAR

STARTCHAR afii10086
ENCODING 228
SWIDTH 759 0
DWIDTH 13 0
BBX 13 16 0 -3
BITMAP
0070
00D8
0098
0180
1D70
3398
6318
6318
4310
C630
C630
CE60
75C0
CC00
C800
7000
ENDCHAR

STARTCHAR afii10087
ENCODING 229
SWIDTH 573 0
DWIDTH 10 0
BBX 10 9 0 0
BITMAP
30C0
5980
1A00
0C00
0C00
0C00
1600
6680
C300
ENDCHAR

STARTCHAR afii10088
ENCODING 230
SWIDTH 635 0
DWIDTH 11 0
BBX 10 12 1 -3
BITMAP
7180
3180
3180
6300
6300
6300
C640
CE80
7300
0100
0100
0200
ENDCHAR

STARTCHAR afii10089
ENCODING 231
SWIDTH 602 0
DWIDTH 10 0
BBX 9 9 1 0
BITMAP
E300
6300
C600
CE00
7600
0C00
0C80
0D00
0600
ENDCHAR

STARTCHAR afii10090
ENCODING 232
SWIDTH 896 0
DWIDTH 15 0
BBX 15 9 1 0
BITMAP
718C
318C
318C
6318
6318
6318
C632
CE74
7398
ENDCHAR

STARTCHAR afii10091
ENCODING 233
SWIDTH 895 0
DWIDTH 15 0
BBX 15 12 1 -3
BITMAP
718C
318C
318C
6318
6318
6318
C632
CE74
7398
0008
0008
0010
ENDCHAR

STARTCHAR afii10092
ENCODING 234
SWIDTH 573 0
DWIDTH 10 0
BBX 8 9 1 0
BITMAP
32
7C
8C
1E
33
63
63
66
38
ENDCHAR

STARTCHAR afii10093
ENCODING 235
SWIDTH 798 0
DWIDTH 14 0
BBX 13 9 1 0
BITMAP
F070
3030
2030
7C60
6660
C660
C6C8
CCD0
7060
ENDCHAR

STARTCHAR afii10094
ENCODING 236
SWIDTH 521 0
DWIDTH 9 0
BBX 7 9 1 0
BITMAP
F0
30
20
7C
66
C6
C6
CC
70
ENDCHAR

STARTCHAR afii10095
ENCODING 237
SWIDTH 448 0
DWIDTH 8 0
BBX 8 9 0 0
BITMAP
1E
23
03
1F
03
06
C6
CC
78
ENDCHAR

STARTCHAR afii10096
ENCODING 238
SWIDTH 805 0
DWIDTH 13 0
BBX 12 9 1 0
BITMAP
71E0
3330
3630
6630
7C30
6C60
CC60
CCC0
C780
ENDCHAR

STARTCHAR afii10097
ENCODING 239
SWIDTH 592 0
DWIDTH 10 0
BBX 10 9 0 0
BITMAP
1F80
3180
3180
3300
1F00
3300
3640
6680
E300
ENDCHAR

STARTCHAR afii61352
ENCODING 240
SWIDTH 1000 0
DWIDTH 17 0
BBX 17 13 0 0
BITMAP
1E0C00
061E00
071400
0B1000
0B1300
0B2480
09AC80
09A980
11A900
11C600
D0C000
D0C000
60CE00
ENDCHAR

STARTCHAR afii10071
ENCODING 241
SWIDTH 462 0
DWIDTH 8 0
BBX 8 12 1 0
BITMAP
33
33
00
1E
33
63
66
CC
F0
C0
C4
78
ENDCHAR

STARTCHAR afii10099
ENCODING 242
SWIDTH 563 0
DWIDTH 11 0
BBX 9 16 1 -3
BITMAP
3800
1800
1800
3000
3700
3980
3180
6180
6300
6300
C600
C600
C600
0C00
1800
2000
ENDCHAR

STARTCHAR afii10100
ENCODING 243
SWIDTH 510 0
DWIDTH 9 0
BBX 10 13 0 0
BITMAP
0180
0300
0400
0000
3FC0
18C0
1840
3000
3000
3000
6000
6000
F000
ENDCHAR

STARTCHAR afii10101
ENCODING 244
SWIDTH 469 0
DWIDTH 8 0
BBX 8 9 1 0
BITMAP
1E
33
61
60
F8
C0
C0
C4
78
ENDCHAR

STARTCHAR afii10102
ENCODING 245
SWIDTH 448 0
DWIDTH 8 0
BBX 7 9 1 0
BITMAP
3C
66
46
60
38
0C
C4
CC
78
ENDCHAR

STARTCHAR afii10103
ENCODING 246
SWIDTH 344 0
DWIDTH 6 0
BBX 5 13 1 0
BITMAP
18
18
00
00
70
30
30
60
60
60
C8
D0
60
ENDCHAR

STARTCHAR afii10104
ENCODING 247
SWIDTH 344 0
DWIDTH 6 0
BBX 6 12 1 0
BITMAP
CC
CC
00
70
30
30
60
60
60
C8
D0
60
ENDCHAR

STARTCHAR afii10105
ENCODING 248
SWIDTH 344 0
DWIDTH 6 0
BBX 8 16 -1 -3
BITMAP
03
03
00
00
0E
06
06
0C
0C
0C
0C
18
18
18
D0
60
ENDCHAR

STARTCHAR afii10106
ENCODING 249
SWIDTH 850 0
DWIDTH 14 0
BBX 14 9 0 0
BITMAP
0FE0
0660
0440
08F8
08CC
098C
D18C
D198
60E0
ENDCHAR

STARTCHAR afii10107
ENCODING 250
SWIDTH 845 0
DWIDTH 14 0
BBX 12 9 1 0
BITMAP
7180
3180
3300
63E0
7F30
6630
C630
C660
C380
ENDCHAR

STARTCHAR afii10108
ENCODING 251
SWIDTH 635 0
DWIDTH 11 0
BBX 10 13 1 0
BITMAP
3800
1800
7F00
1800
3700
3980
3180
6300
6300
6300
C640
C680
C300
ENDCHAR

STARTCHAR afii10109
ENCODING 252
SWIDTH 594 0
DWIDTH 10 0
BBX 9 12 1 0
BITMAP
0300
0C00
0000
7380
3580
3400
6800
7800
6C00
CC00
C600
C700
ENDCHAR

STARTCHAR section
ENCODING 253
SWIDTH 489 0
DWIDTH 8 0
BBX 8 16 0 -3
BITMAP
1E
33
23
30
30
78
4C
46
62
32
1E
0C
0C
C4
CC
78
ENDCHAR

STARTCHAR afii10110
ENCODING 254
SWIDTH 510 0
DWIDTH 9 0
BBX 9 15 0 -3
BITMAP
1900
0E00
0000
6300
B180
3080
3080
1900
1900
1900
1A00
0C00
8800
D000
6000
ENDCHAR

STARTCHAR afii10193
ENCODING 255
SWIDTH 635 0
DWIDTH 11 0
BBX 10 12 1 -3
BITMAP
7180
3180
3180
6300
6300
6300
C640
CE80
7300
2000
2000
4000
ENDCHAR
ENDFONT
